<svg width="608.1799926757812px" height="120.8px" xmlns="http://www.w3.org/2000/svg" viewBox="-54.089996337890625 14.600000000000001 608.1799926757812 120.8" style="background: rgba(255, 255, 255, 0);" preserveAspectRatio="xMidYMid"><defs><filter id="editing-extrude-glow"><feFlood flood-color="#ffffff" result="flood-1"></feFlood><feMorphology operator="erode" radius="1" in="SourceAlpha" result="erode"></feMorphology><feComposite operator="in" in="flood-1" in2="erode" result="comp1"></feComposite><feConvolveMatrix order="2,2" divisor="1" in="comp1" result="convolve" kernelMatrix="0 0 1 1"></feConvolveMatrix><feOffset dx="-2" dy="0" in="convolve" result="extrude"></feOffset><feComposite operator="in" in="flood-1" in2="extrude" result="comp-extrude"></feComposite><feFlood flood-color="#f9ae5c" result="flood-2"></feFlood><feComposite operator="in" in="flood-2" in2="SourceAlpha" result="comp2"></feComposite><feMorphology operator="dilate" radius="1" in="comp2" result="dilate"></feMorphology><feOffset dx="-3" dy="0" in="dilate" result="offset"></feOffset><feGaussianBlur in="offset" stdDeviation="5.8" result="blur"></feGaussianBlur><feComponentTransfer in="blur" result="shadow"><feFuncA type="linear" slope="0.8" intercept="-0.2"></feFuncA></feComponentTransfer><feMerge><feMergeNode in="shadow"></feMergeNode><feMergeNode in="comp-extrude"></feMergeNode><feMergeNode in="SourceGraphic"></feMergeNode></feMerge></filter></defs><g filter="url(#editing-extrude-glow)"><g transform="translate(33.58500909805298, 104.79000091552734)"><path d="M2.69-39.68L2.69-39.68L2.69-39.68Q4.54-43.52 9.70-43.52L9.70-43.52L9.70-43.52Q14.85-43.52 17.25-40.54L17.25-40.54L17.25-40.54Q19.65-37.57 19.65-30.72L19.65-30.72L19.65-7.87L35.20-42.18L42.82-42.18L22.91 0L7.94 0L6.02-30.72L6.02-30.72Q5.82-34.11 4.90-36.42L4.90-36.42L4.90-36.42Q3.97-38.72 2.69-39.68ZM55.62-3.52L55.62-3.52L55.62-3.52Q53.63 1.28 47.30 1.28L47.30 1.28L47.30 1.28Q44.03 1.28 41.98-0.96L41.98-0.96L41.98-0.96Q40.26-2.94 40.26-4.93L40.26-4.93L40.26-4.93Q40.26-10.11 42.62-20.22L42.62-20.22L44.99-32.64L57.98-33.92L54.08-13.70L54.08-13.70Q52.99-8.96 52.99-7.30L52.99-7.30L52.99-7.30Q52.99-3.65 55.62-3.52ZM46.14-41.54L46.14-41.54L46.14-41.54Q46.14-44.03 48.22-45.38L48.22-45.38L48.22-45.38Q50.30-46.72 53.31-46.72L53.31-46.72L53.31-46.72Q56.32-46.72 58.14-45.38L58.14-45.38L58.14-45.38Q59.97-44.03 59.97-41.54L59.97-41.54L59.97-41.54Q59.97-39.04 57.95-37.76L57.95-37.76L57.95-37.76Q55.94-36.48 52.93-36.48L52.93-36.48L52.93-36.48Q49.92-36.48 48.03-37.76L48.03-37.76L48.03-37.76Q46.14-39.04 46.14-41.54ZM84.29-31.55L84.29-31.55L84.29-31.55Q86.40-33.92 90.05-33.92L90.05-33.92L90.05-33.92Q92.29-33.92 94.02-32.70L94.02-32.70L94.02-32.70Q95.74-31.49 95.74-29.22L95.74-29.22L95.74-29.22Q95.74-26.94 95.04-24.51L95.04-24.51L95.04-24.51Q94.34-22.08 93.25-19.58L93.25-19.58L93.25-19.58Q91.07-14.72 88.06-10.69L88.06-10.69L88.06-10.69Q83.84-4.86 79.78-1.79L79.78-1.79L79.78-1.79Q75.71 1.28 71.30 1.28L71.30 1.28L71.30 1.28Q67.71 1.28 65.54 0.45L65.54 0.45L65.54 0.45Q65.15-12.99 64.67-17.79L64.67-17.79L64.67-17.79Q64.19-22.59 63.81-25.22L63.81-25.22L63.81-25.22Q63.17-30.34 61.25-31.55L61.25-31.55L61.25-31.55Q62.72-32.83 64.16-33.38L64.16-33.38L64.16-33.38Q65.60-33.92 68.58-33.92L68.58-33.92L68.58-33.92Q71.55-33.92 73.66-31.58L73.66-31.58L73.66-31.58Q75.78-29.25 76.19-25.12L76.19-25.12L76.19-25.12Q76.61-20.99 76.61-16L76.61-16L76.61-16Q76.61-11.01 76.22-4.99L76.22-4.99L76.22-4.99Q78.21-6.40 80.32-10.69L80.32-10.69L80.32-10.69Q83.20-16.64 84.22-23.81L84.22-23.81L84.22-23.81Q84.54-25.98 84.54-28.29L84.54-28.29L84.54-28.29Q84.54-30.59 84.29-31.55ZM123.39-10.82L123.39-10.82L123.39-10.82Q124.99-9.73 124.99-7.33L124.99-7.33L124.99-7.33Q124.99-4.93 123.78-3.39L123.78-3.39L123.78-3.39Q122.56-1.86 120.58-0.83L120.58-0.83L120.58-0.83Q116.48 1.28 112.06 1.28L112.06 1.28L112.06 1.28Q107.65 1.28 105.06 0.32L105.06 0.32L105.06 0.32Q102.46-0.64 100.74-2.43L100.74-2.43L100.74-2.43Q97.34-5.82 97.34-12.03L97.34-12.03L97.34-12.03Q97.34-21.70 102.59-27.58L102.59-27.58L102.59-27.58Q108.22-33.92 118.02-33.92L118.02-33.92L118.02-33.92Q124.10-33.92 127.10-31.36L127.10-31.36L127.10-31.36Q129.34-29.44 129.34-26.30L129.34-26.30L129.34-26.30Q129.34-15.04 109.89-15.04L109.89-15.04L109.89-15.04Q109.63-13.38 109.63-11.97L109.63-11.97L109.63-11.97Q109.63-9.02 110.94-7.90L110.94-7.90L110.94-7.90Q112.26-6.78 114.69-6.78L114.69-6.78L114.69-6.78Q117.12-6.78 119.71-7.90L119.71-7.90L119.71-7.90Q122.30-9.02 123.39-10.82ZM110.34-17.79L110.34-17.79L110.34-17.79Q114.88-17.79 117.50-20.61L117.50-20.61L117.50-20.61Q120.13-23.30 120.13-27.58L120.13-27.58L120.13-27.58Q120.13-29.06 119.58-29.86L119.58-29.86L119.58-29.86Q119.04-30.66 117.95-30.66L117.95-30.66L117.95-30.66Q116.86-30.66 115.94-30.24L115.94-30.24L115.94-30.24Q115.01-29.82 114.05-28.42L114.05-28.42L114.05-28.42Q111.68-25.22 110.34-17.79ZM148.03-30.34L148.03-30.34L148.03-30.34Q151.49-33.92 158.78-33.92L158.78-33.92L158.78-33.92Q162.82-33.92 165.02-31.78L165.02-31.78L165.02-31.78Q167.23-29.63 167.23-25.70L167.23-25.70L167.23-25.70Q167.23-21.76 165.02-18.98L165.02-18.98L165.02-18.98Q162.82-16.19 158.72-15.04L158.72-15.04L158.72-15.04Q159.04-13.76 159.49-12.42L159.49-12.42L160.38-9.86L160.38-9.86Q161.60-6.59 162.56-5.44L162.56-5.44L162.56-5.44Q163.52-4.29 164.80-3.90L164.80-3.90L164.80-3.90Q164.10-1.28 161.54 0.13L161.54 0.13L161.54 0.13Q159.49 1.28 156.67 1.28L156.67 1.28L156.67 1.28Q148.42 1.28 147.33-11.46L147.33-11.46L147.33-11.46Q147.14-13.25 147.14-15.04L147.14-15.04L147.14-15.04Q150.34-15.94 152.58-18.94L152.58-18.94L152.58-18.94Q154.82-21.95 154.82-25.47L154.82-25.47L154.82-25.47Q154.82-28.99 152.32-28.99L152.32-28.99L152.32-28.99Q150.53-28.99 149.12-27.01L149.12-27.01L149.12-27.01Q147.71-25.02 147.07-21.63L147.07-21.63L142.85 0L129.92 1.28L138.88-44.80L151.74-46.08L150.27-38.46L150.27-38.46Q149.31-33.09 148.03-30.34ZM188.80 0L181.44 0L193.02-42.24L206.40-42.24L209.34-18.11L221.25-42.24L232.45-42.24L233.60-10.62L233.60-10.62Q233.86-4.35 236.93-2.43L236.93-2.43L236.93-2.43Q236.22-1.15 234.18 0.06L234.18 0.06L234.18 0.06Q232.13 1.28 229.41 1.28L229.41 1.28L229.41 1.28Q226.69 1.28 225.09 0.51L225.09 0.51L225.09 0.51Q223.49-0.26 222.59-1.54L222.59-1.54L222.59-1.54Q220.99-3.84 220.99-8.26L220.99-8.26L220.99-28.03L208.38 0L200.45 0L195.97-28.74L188.80 0ZM242.46-1.92L242.46-1.92L242.46-1.92Q240.96-3.58 240.29-6.21L240.29-6.21L240.29-6.21Q239.62-8.83 239.62-13.12L239.62-13.12L239.62-13.12Q239.62-17.41 241.09-21.31L241.09-21.31L241.09-21.31Q242.56-25.22 245.25-28.03L245.25-28.03L245.25-28.03Q250.75-33.92 259.84-33.92L259.84-33.92L259.84-33.92Q263.10-33.92 265.47-32.83L265.47-32.83L276.42-33.92L271.68-8.96L271.68-8.96Q271.49-8.19 271.49-6.78L271.49-6.78L271.49-6.78Q271.49-5.38 272.35-4.48L272.35-4.48L272.35-4.48Q273.22-3.58 274.50-3.46L274.50-3.46L274.50-3.46Q273.86-1.28 271.52 0L271.52 0L271.52 0Q269.18 1.28 266.56 1.28L266.56 1.28L266.56 1.28Q263.94 1.28 262.18 0.29L262.18 0.29L262.18 0.29Q260.42-0.70 259.90-2.37L259.90-2.37L259.90-2.37Q258.88-0.77 256.70 0.26L256.70 0.26L256.70 0.26Q254.53 1.28 251.62 1.28L251.62 1.28L251.62 1.28Q248.70 1.28 246.34 0.51L246.34 0.51L246.34 0.51Q243.97-0.26 242.46-1.92ZM255.97-27.90L255.97-27.90L255.97-27.90Q255.23-26.75 254.59-24.80L254.59-24.80L254.59-24.80Q253.95-22.85 252.90-17.63L252.90-17.63L252.90-17.63Q251.84-12.42 251.84-8.70L251.84-8.70L251.84-8.70Q251.84-4.99 252.42-3.90L252.42-3.90L252.42-3.90Q252.99-2.82 254.02-2.82L254.02-2.82L254.02-2.82Q256.06-2.82 257.57-4.77L257.57-4.77L257.57-4.77Q259.07-6.72 259.65-10.18L259.65-10.18L263.04-28.93L263.04-28.93Q261.70-30.08 260.13-30.08L260.13-30.08L260.13-30.08Q258.56-30.08 257.63-29.57L257.63-29.57L257.63-29.57Q256.70-29.06 255.97-27.90ZM300.42-2.69L300.42-2.69L300.42-2.69Q297.34 1.28 289.73 1.28L289.73 1.28L289.73 1.28Q285.76 1.28 282.88-1.12L282.88-1.12L282.88-1.12Q280-3.52 280-6.98L280-6.98L280-6.98Q280-8.90 280.19-9.86L280.19-9.86L284.48-32.64L297.47-33.92L292.80-9.22L292.80-9.22Q292.54-7.81 292.54-6.98L292.54-6.98L292.54-6.98Q292.54-3.26 294.78-3.26L294.78-3.26L294.78-3.26Q297.28-3.26 299.07-6.66L299.07-6.66L299.07-6.66Q299.65-7.74 299.90-9.15L299.90-9.15L304.45-32.64L317.06-33.92L312.32-8.96L312.32-8.96Q312.13-8 312.13-6.98L312.13-6.98L312.13-6.98Q312.13-5.95 312.70-4.83L312.70-4.83L312.70-4.83Q313.28-3.71 315.14-3.46L315.14-3.46L315.14-3.46Q314.75-1.92 313.41-0.90L313.41-0.90L313.41-0.90Q310.59 1.28 307.55 1.28L307.55 1.28L307.55 1.28Q304.51 1.28 302.72 0.19L302.72 0.19L302.72 0.19Q300.93-0.90 300.42-2.69ZM340.54-17.98L340.54-17.98L340.54-17.98Q342.85-22.08 342.85-26.24L342.85-26.24L342.85-26.24Q342.85-28.99 340.86-28.99L340.86-28.99L340.86-28.99Q339.33-28.99 337.73-26.37L337.73-26.37L337.73-26.37Q336.06-23.74 335.55-20.35L335.55-20.35L332.22 0L318.98 1.28L325.50-32.64L336.06-33.92L334.91-27.46L334.91-27.46Q338.05-33.92 345.09-33.92L345.09-33.92L345.09-33.92Q348.80-33.92 350.82-32L350.82-32L350.82-32Q352.83-30.08 352.83-26.14L352.83-26.14L352.83-26.14Q352.83-22.21 350.24-19.71L350.24-19.71L350.24-19.71Q347.65-17.22 343.23-17.22L343.23-17.22L343.23-17.22Q341.31-17.22 340.54-17.98ZM374.21-7.23L374.21-7.23L374.21-7.23Q370.88-3.78 364.80-3.78L364.80-3.78L364.80-3.78Q357.18-3.78 355.58-9.34L355.58-9.34L355.58-9.34Q355.07-11.01 355.07-12.86L355.07-12.86L355.07-12.86Q355.07-14.72 355.46-16.64L355.46-16.64L358.46-32.64L371.46-33.92L367.94-15.30L367.94-15.30Q367.81-14.46 367.62-13.57L367.62-13.57L367.62-13.57Q367.42-12.67 367.42-11.74L367.42-11.74L367.42-11.74Q367.42-10.82 367.74-10.21L367.74-10.21L367.74-10.21Q368.06-9.60 368.51-9.22L368.51-9.22L368.51-9.22Q369.28-8.70 370.66-8.70L370.66-8.70L370.66-8.70Q372.03-8.70 373.22-10.37L373.22-10.37L373.22-10.37Q374.40-12.03 374.98-14.91L374.98-14.91L378.50-32.64L391.10-33.92L386.30-8.77L386.30-8.77Q383.94 3.52 379.07 8.38L379.07 8.38L379.07 8.38Q376.58 10.88 373.34 11.87L373.34 11.87L373.34 11.87Q370.11 12.86 365.95 12.86L365.95 12.86L365.95 12.86Q359.23 12.86 355.39 10.75L355.39 10.75L355.39 10.75Q351.55 8.64 351.55 5.12L351.55 5.12L351.55 5.12Q351.55 2.50 353.54 0.99L353.54 0.99L353.54 0.99Q355.52-0.51 358.59-0.51L358.59-0.51L358.59-0.51Q361.28-0.51 363.33 0.64L363.33 0.64L363.33 0.64Q364.54 1.34 365.12 2.24L365.12 2.24L365.12 2.24Q363.65 3.52 363.65 5.63L363.65 5.63L363.65 5.63Q363.65 8.45 366.21 8.45L366.21 8.45L366.21 8.45Q370.43 8.45 372.86-1.28L372.86-1.28L372.86-1.28Q373.57-4.16 374.21-7.23ZM396.19-1.92L396.19-1.92L396.19-1.92Q394.69-3.58 394.02-6.21L394.02-6.21L394.02-6.21Q393.34-8.83 393.34-13.12L393.34-13.12L393.34-13.12Q393.34-17.41 394.82-21.31L394.82-21.31L394.82-21.31Q396.29-25.22 398.98-28.03L398.98-28.03L398.98-28.03Q404.48-33.92 413.57-33.92L413.57-33.92L413.57-33.92Q416.83-33.92 419.20-32.83L419.20-32.83L430.14-33.92L425.41-8.96L425.41-8.96Q425.22-8.19 425.22-6.78L425.22-6.78L425.22-6.78Q425.22-5.38 426.08-4.48L426.08-4.48L426.08-4.48Q426.94-3.58 428.22-3.46L428.22-3.46L428.22-3.46Q427.58-1.28 425.25 0L425.25 0L425.25 0Q422.91 1.28 420.29 1.28L420.29 1.28L420.29 1.28Q417.66 1.28 415.90 0.29L415.90 0.29L415.90 0.29Q414.14-0.70 413.63-2.37L413.63-2.37L413.63-2.37Q412.61-0.77 410.43 0.26L410.43 0.26L410.43 0.26Q408.26 1.28 405.34 1.28L405.34 1.28L405.34 1.28Q402.43 1.28 400.06 0.51L400.06 0.51L400.06 0.51Q397.70-0.26 396.19-1.92ZM409.70-27.90L409.70-27.90L409.70-27.90Q408.96-26.75 408.32-24.80L408.32-24.80L408.32-24.80Q407.68-22.85 406.62-17.63L406.62-17.63L406.62-17.63Q405.57-12.42 405.57-8.70L405.57-8.70L405.57-8.70Q405.57-4.99 406.14-3.90L406.14-3.90L406.14-3.90Q406.72-2.82 407.74-2.82L407.74-2.82L407.74-2.82Q409.79-2.82 411.30-4.77L411.30-4.77L411.30-4.77Q412.80-6.72 413.38-10.18L413.38-10.18L416.77-28.93L416.77-28.93Q415.42-30.08 413.86-30.08L413.86-30.08L413.86-30.08Q412.29-30.08 411.36-29.57L411.36-29.57L411.36-29.57Q410.43-29.06 409.70-27.90Z" fill="#0a0a0a"></path></g></g><style>text {
  font-size: 64px;
  font-family: Arial Black;
  dominant-baseline: central;
  text-anchor: middle;
}</style></svg>